<?xml version="1.0" standalone="no"?>
<!DOCTYPE svg PUBLIC "-//W3C//DTD SVG 20010904//EN"
 "http://www.w3.org/TR/2001/REC-SVG-20010904/DTD/svg10.dtd">
<svg version="1.0" xmlns="http://www.w3.org/2000/svg"
 width="280.000000pt" height="280.000000pt" viewBox="0 0 280.000000 280.000000"
 preserveAspectRatio="xMidYMid meet">
<metadata>
Created by potrace 1.11, written by Peter Selinger 2001-2013
</metadata>
<g transform="translate(0.000000,280.000000) scale(0.100000,-0.100000)"
fill="#000000" stroke="none">
<path d="M0 1400 l0 -1400 1400 0 1400 0 0 1400 0 1400 -1400 0 -1400 0 0
-1400z m1897 134 c87 -188 163 -342 168 -343 6 -1 63 110 127 246 190 401 211
444 215 440 4 -4 133 -851 133 -874 0 -9 -16 -13 -50 -13 -27 0 -50 3 -50 7 0
25 -73 532 -78 547 -6 13 -42 -55 -141 -265 -74 -156 -139 -294 -145 -307 -11
-21 -25 5 -156 287 -80 170 -145 309 -147 308 -2 -3 -83 -553 -83 -567 0 -6
-22 -10 -50 -10 -37 0 -50 4 -50 15 0 16 127 816 136 854 3 13 7 22 9 20 2 -3
75 -158 162 -345z m-1517 131 l0 -175 223 2 222 3 3 173 2 172 45 0 45 0 0
-425 0 -425 -45 0 -45 0 0 205 0 205 -225 0 -225 0 0 -205 0 -205 -50 0 -50 0
0 425 0 425 50 0 50 0 0 -175z m870 -205 l0 -379 118 -3 117 -3 0 -43 0 -43
-168 -2 -167 -2 0 428 0 427 50 0 50 0 0 -380z"/>
</g>
</svg>
