<?xml version="1.0" standalone="no"?>
<!DOCTYPE svg PUBLIC "-//W3C//DTD SVG 20010904//EN"
 "http://www.w3.org/TR/2001/REC-SVG-20010904/DTD/svg10.dtd">
<svg version="1.0" xmlns="http://www.w3.org/2000/svg"
 width="1084.000000pt" height="1084.000000pt" viewBox="0 0 1084.000000 1084.000000"
 preserveAspectRatio="xMidYMid meet">
<metadata>
Created by potrace 1.11, written by Peter Selinger 2001-2013
</metadata>
<g transform="translate(0.000000,1084.000000) scale(0.100000,-0.100000)"
fill="#000000" stroke="none">
<path d="M7 10833 c-4 -3 -7 -2442 -7 -5420 l0 -5413 5420 0 5420 0 0 5420 0
5420 -5413 0 c-2978 0 -5417 -3 -5420 -7z m5490 -2309 c-3 -3 -12 -4 -19 -1
-8 3 -5 6 6 6 11 1 17 -2 13 -5z m-48 -13 c25 -5 58 -5 76 0 22 6 54 6 92 -2
32 -6 117 -12 188 -15 72 -2 139 -8 150 -14 37 -18 130 -37 161 -33 18 3 37
-1 45 -9 18 -17 117 -48 155 -48 16 0 39 -7 50 -15 26 -18 92 -42 164 -60 69
-17 147 -50 151 -64 2 -6 35 -22 73 -35 77 -28 98 -42 49 -33 -41 8 -42 2 -2
-19 22 -11 34 -13 38 -5 5 7 19 2 42 -15 39 -29 69 -47 69 -40 0 2 -16 14 -36
26 -48 31 -35 37 20 10 31 -14 46 -28 46 -41 0 -10 3 -19 8 -20 31 -3 49 -14
99 -59 32 -30 62 -49 70 -46 8 3 12 2 9 -3 -8 -12 63 -83 75 -76 5 4 15 3 22
-2 6 -4 17 -8 24 -9 17 -3 93 -57 93 -67 0 -10 -12 -3 -65 36 l-40 29 38 -34
c20 -18 37 -39 37 -47 0 -8 6 -11 17 -7 15 6 63 -28 63 -45 0 -4 28 -34 62
-66 183 -172 318 -327 429 -494 83 -125 91 -137 83 -120 -5 9 -3 12 5 7 6 -4
10 -13 9 -19 -1 -7 15 -41 36 -77 66 -113 141 -270 151 -315 4 -16 18 -54 32
-83 34 -72 63 -170 56 -188 -3 -8 1 -20 10 -27 17 -14 51 -153 66 -272 22
-173 33 -394 19 -372 -4 7 -8 28 -8 48 0 59 -39 275 -70 394 -45 169 -133 397
-195 505 -45 78 -326 488 -361 525 -20 22 -43 50 -51 63 -9 12 -20 22 -26 22
-5 0 -2 -9 8 -20 10 -11 16 -22 13 -25 -3 -3 -38 31 -78 76 -77 85 -140 139
-395 338 -155 120 -566 352 -675 381 -25 6 -55 18 -67 26 -30 19 -308 110
-363 119 -25 4 -67 13 -95 21 -86 23 -257 46 -298 40 -23 -4 -45 -2 -52 4 -21
18 -357 16 -542 -3 -90 -9 -216 -29 -285 -46 -68 -16 -143 -33 -168 -36 -25
-4 -57 -13 -71 -21 -14 -7 -63 -24 -110 -37 -121 -36 -183 -62 -369 -154 -326
-162 -447 -250 -787 -574 -111 -106 -274 -306 -345 -424 -20 -33 -45 -69 -56
-80 -10 -12 -31 -45 -46 -75 -15 -30 -33 -59 -39 -65 -7 -5 -45 -69 -85 -141
-39 -72 -78 -137 -86 -143 -8 -7 -12 -19 -10 -26 3 -8 -5 -35 -19 -62 -23 -46
-63 -159 -71 -199 -9 -44 -66 -225 -79 -251 -21 -40 -45 -193 -57 -363 -14
-186 -17 -199 -19 -70 -3 331 91 836 208 1115 21 49 48 116 60 147 13 32 29
62 37 69 8 6 14 18 14 26 0 19 37 90 67 131 13 18 26 41 28 53 2 11 20 41 38
67 19 26 49 71 67 101 17 30 51 78 75 105 23 28 52 66 63 85 20 33 154 184
242 271 98 98 316 278 410 339 30 20 80 55 110 77 30 23 69 48 85 58 17 9 37
21 45 26 8 5 42 22 75 36 33 15 69 36 79 46 11 10 34 21 53 24 18 3 33 10 33
15 0 5 14 15 30 24 19 10 30 11 30 5 0 -14 38 -3 60 15 8 8 45 21 82 30 37 10
66 22 65 29 -1 6 9 11 23 12 14 1 63 13 110 28 110 36 257 64 299 58 19 -2 36
0 40 6 4 6 27 14 51 16 25 3 65 10 89 15 24 5 60 7 80 4 20 -2 47 0 61 6 31
12 149 13 209 2z m1061 -171 c13 -9 13 -10 0 -10 -8 0 -22 5 -30 10 -13 9 -13
10 0 10 8 0 22 -5 30 -10z m626 -331 c19 -22 19 -22 -3 -10 -24 12 -39 31 -25
31 5 0 17 -10 28 -21z m380 -311 c22 -24 38 -48 32 -48 -2 0 -24 21 -48 46
-25 26 -36 42 -25 36 11 -6 29 -21 41 -34z m135 -145 c13 -16 12 -17 -3 -4
-17 13 -22 21 -14 21 2 0 10 -8 17 -17z m-3332 -1004 c138 -48 47 -426 -238
-998 l-78 -156 -8 -159 c-8 -181 -14 -173 83 -109 31 21 92 73 134 116 43 43
82 76 87 73 4 -3 11 -18 14 -33 10 -46 63 -120 114 -157 148 -109 355 -108
543 4 69 41 198 145 211 170 4 8 17 114 29 235 25 260 41 354 86 535 56 224
122 330 206 330 44 0 85 -38 94 -87 15 -79 -21 -236 -101 -438 -49 -126 -192
-444 -236 -524 -34 -64 -35 -70 -10 -120 46 -90 161 -151 259 -136 95 14 208
69 309 151 46 38 73 43 73 16 0 -18 -15 -113 -26 -160 -3 -18 27 2 135 88 77
60 147 110 156 110 11 0 15 -11 15 -45 0 -63 20 -105 69 -147 54 -46 136 -72
206 -65 84 9 142 44 290 174 38 35 77 63 86 63 12 0 18 -13 22 -55 16 -154
137 -228 372 -228 180 1 374 43 680 149 506 176 612 204 830 224 168 16 312 2
510 -50 132 -35 199 -59 505 -183 267 -108 411 -158 555 -192 106 -26 241 -45
312 -45 26 0 43 -5 43 -12 0 -8 -32 -9 -117 -5 -197 10 -377 63 -842 249 -671
267 -907 276 -1541 56 -405 -140 -499 -170 -617 -195 -112 -24 -150 -27 -308
-27 -166 0 -185 1 -239 23 -32 13 -76 39 -98 59 -38 34 -78 98 -78 124 0 7 -4
19 -9 27 -7 10 -25 0 -78 -45 -176 -148 -311 -186 -436 -123 -83 43 -122 85
-146 160 l-16 48 -140 -109 c-77 -61 -146 -110 -152 -110 -17 0 -16 37 1 127
10 51 10 70 2 65 -6 -4 -46 -31 -90 -59 -180 -121 -375 -125 -483 -12 -18 19
-39 51 -48 72 -8 20 -17 37 -19 37 -3 0 -28 -21 -58 -46 -74 -64 -181 -128
-263 -160 -83 -31 -213 -42 -294 -25 -117 25 -234 109 -281 201 l-22 43 -24
-30 c-49 -63 -243 -203 -280 -203 -14 0 -15 20 -12 165 1 91 2 165 1 165 -1 0
-35 -30 -75 -66 -209 -189 -532 -345 -834 -404 -350 -67 -598 -48 -1104 85
-409 108 -630 137 -879 116 -280 -23 -436 -69 -868 -258 -7 -3 -13 -1 -13 4 0
5 12 14 27 20 16 6 85 36 155 67 174 76 340 132 488 164 114 24 145 26 340 26
255 0 328 -11 755 -109 402 -92 485 -106 678 -112 194 -7 290 4 482 52 317 80
594 221 780 398 l76 72 9 115 c34 446 129 856 227 977 13 16 67 52 79 53 1 0
15 -5 33 -11z m4038 -1671 c-3 -8 -6 -5 -6 6 -1 11 2 17 5 13 3 -3 4 -12 1
-19z m-10 -50 c-3 -7 -5 -2 -5 12 0 14 2 19 5 13 2 -7 2 -19 0 -25z m-36 -149
c-71 -298 -224 -681 -353 -881 -52 -81 -96 -151 -123 -194 -11 -18 -37 -51
-57 -73 -21 -22 -38 -45 -38 -51 0 -23 -274 -311 -405 -426 -89 -77 -206 -167
-275 -209 -25 -15 -61 -40 -80 -55 -19 -15 -63 -42 -98 -60 -34 -18 -65 -36
-68 -41 -3 -5 -20 -16 -37 -24 -44 -21 -77 -41 -90 -54 -6 -6 -18 -11 -26 -11
-9 0 -29 -7 -45 -15 -15 -8 -32 -15 -38 -15 -5 0 -21 -9 -36 -20 -15 -11 -36
-21 -47 -23 -11 -1 -31 -10 -45 -20 -28 -19 -44 -22 -34 -6 9 15 -35 2 -56
-16 -8 -7 -42 -18 -74 -24 -55 -10 -85 -21 -57 -21 7 0 9 -5 5 -11 -3 -6 -15
-9 -25 -6 -10 3 -69 -8 -131 -25 -72 -19 -139 -30 -185 -30 -40 -1 -73 -5 -73
-9 0 -8 -55 -16 -170 -25 -41 -3 -79 -10 -85 -14 -5 -5 -48 -4 -95 1 -47 4
-122 6 -167 2 -59 -4 -83 -3 -83 6 0 8 -31 10 -107 8 -83 -3 -123 1 -173 15
-39 11 -78 16 -99 13 -22 -4 -39 -1 -50 8 -19 16 -96 37 -140 37 -16 0 -32 4
-35 8 -5 9 -68 28 -191 58 -38 9 -78 25 -87 35 -10 10 -38 21 -62 24 -25 4
-51 14 -57 22 -11 12 -8 13 17 8 l29 -6 -30 17 c-20 11 -30 13 -33 5 -2 -7
-20 -2 -50 15 -26 14 -38 19 -28 10 10 -8 24 -17 30 -19 6 -2 9 -7 6 -10 -10
-10 -78 25 -83 44 -3 10 -14 19 -24 19 -10 0 -42 18 -71 40 -33 25 -59 37 -69
33 -9 -4 -14 -2 -11 3 4 5 1 16 -5 25 -14 19 -74 59 -64 43 10 -17 -56 -1 -89
21 -40 26 -20 30 23 5 l38 -23 -35 31 c-19 17 -42 32 -50 32 -17 1 -50 23 -50
34 0 4 5 4 12 0 7 -4 8 -3 4 4 -4 7 -13 12 -19 12 -11 0 -53 30 -203 145 -21
17 -81 71 -133 122 -51 51 -96 91 -100 90 -3 -1 -7 2 -8 6 -1 4 -25 36 -54 70
-66 78 -74 86 -64 67 5 -9 4 -12 -1 -7 -5 5 -9 12 -9 16 0 8 -60 86 -92 120
-13 13 -23 28 -23 33 0 6 -20 37 -45 70 -25 33 -45 65 -45 70 0 6 -20 40 -44
77 -56 85 -87 147 -78 156 4 3 0 11 -9 16 -22 12 -80 149 -124 294 -60 200
-81 330 -25 160 65 -197 190 -442 321 -625 52 -73 524 -553 579 -589 19 -13 1
8 -40 47 -41 38 -73 72 -70 76 3 3 39 -24 80 -59 41 -36 104 -82 140 -103 36
-21 88 -52 115 -69 201 -122 324 -187 470 -247 50 -21 120 -51 156 -67 36 -16
73 -29 83 -29 9 0 67 -16 129 -36 160 -51 164 -52 257 -69 263 -47 290 -49
600 -48 205 1 388 18 500 47 30 7 78 17 105 21 28 3 70 13 95 22 25 8 70 21
100 28 261 63 662 258 876 426 38 30 92 70 119 88 81 56 280 239 361 331 41
47 81 92 89 100 79 82 261 303 280 340 9 17 24 39 33 48 10 10 46 74 81 142
35 69 76 142 93 163 33 43 90 187 139 355 18 61 34 110 36 109 2 -2 -10 -60
-26 -128z m-4761 -49 c0 -5 -7 -10 -15 -10 -11 0 -15 -12 -15 -45 0 -25 -4
-45 -10 -45 -5 0 -10 19 -10 41 0 28 -6 46 -17 55 -16 12 -13 13 25 14 23 0
42 -4 42 -10z m177 -6 c3 -9 1 -25 -6 -36 -10 -16 -9 -23 5 -39 21 -23 7 -25
-18 -2 -17 15 -18 15 -18 0 0 -10 -4 -17 -10 -17 -5 0 -10 25 -10 55 0 52 1
55 25 55 15 0 28 -7 32 -16z m226 -94 c-2 -3 -10 3 -17 13 -17 22 -52 22 -65
0 -5 -10 -12 -15 -16 -11 -3 3 6 30 21 59 l27 53 27 -54 c16 -30 26 -57 23
-60z m215 73 c5 57 22 44 22 -18 0 -30 -3 -55 -7 -55 -4 0 -24 17 -45 37 l-38
37 0 -37 c0 -20 -4 -37 -10 -37 -5 0 -10 25 -10 56 l0 56 43 -38 42 -39 3 38z
m211 22 c-1 -5 -10 -9 -21 -7 -27 5 -22 -13 8 -26 18 -9 24 -19 22 -35 -4 -27
-48 -36 -68 -13 -11 14 -9 15 19 10 38 -8 40 3 4 32 -33 26 -26 57 12 52 14
-2 25 -7 24 -13z m151 -30 c0 -33 4 -45 15 -45 8 0 15 -4 15 -10 0 -5 -11 -10
-25 -10 -24 0 -25 3 -25 55 0 30 5 55 10 55 6 0 10 -20 10 -45z m226 -6 c14
-28 22 -54 19 -57 -4 -4 -11 1 -16 11 -12 21 -55 23 -63 2 -3 -8 -10 -15 -16
-15 -5 0 2 25 17 55 15 30 28 55 30 55 1 0 14 -23 29 -51z m192 37 c-12 -9
-18 -27 -18 -55 0 -22 -4 -41 -10 -41 -5 0 -10 20 -10 45 0 33 -4 45 -15 45
-8 0 -15 5 -15 10 0 6 19 10 43 10 37 -1 40 -2 25 -14z m142 -41 c0 -30 -4
-55 -10 -55 -5 0 -10 25 -10 55 0 30 5 55 10 55 6 0 10 -25 10 -55z m232 38
c22 -20 23 -51 1 -75 -32 -36 -103 -12 -103 35 0 49 64 75 102 40z m236 -20
c5 57 22 44 22 -18 0 -30 -3 -55 -7 -55 -4 0 -24 17 -45 37 l-38 37 0 -37 c0
-20 -4 -37 -10 -37 -5 0 -10 25 -10 56 l0 56 43 -38 42 -39 3 38z m421 22 c-1
-5 -10 -9 -21 -7 -27 5 -22 -13 8 -26 18 -9 24 -19 22 -35 -4 -27 -48 -36 -68
-13 -11 14 -9 15 19 10 38 -8 40 3 4 32 -33 26 -26 57 12 52 14 -2 25 -7 24
-13z m196 5 c-3 -5 -15 -10 -26 -10 -10 0 -19 -4 -19 -10 0 -5 9 -10 19 -10
11 0 23 -4 26 -10 4 -6 -5 -10 -19 -10 -16 0 -26 -6 -26 -15 0 -8 9 -15 19
-15 11 0 23 -4 26 -10 4 -6 -8 -10 -29 -10 l-36 0 0 55 0 55 36 0 c21 0 33 -4
29 -10z m192 -6 c3 -9 1 -25 -6 -36 -10 -16 -9 -23 5 -39 21 -23 7 -25 -18 -2
-17 15 -18 15 -18 0 0 -10 -4 -17 -10 -17 -5 0 -10 25 -10 55 0 52 1 55 25 55
15 0 28 -7 32 -16z m155 -21 l15 -38 16 38 c9 20 20 37 26 37 6 0 3 -16 -6
-37 -8 -21 -20 -49 -25 -63 -10 -25 -10 -25 -28 15 -26 60 -32 85 -22 85 5 0
16 -17 24 -37z m198 -18 c0 -30 -4 -55 -10 -55 -5 0 -10 25 -10 55 0 30 5 55
10 55 6 0 10 -25 10 -55z m227 40 c2 -5 -14 -10 -34 -10 -36 0 -38 -2 -38 -30
0 -28 2 -30 38 -30 42 0 45 -18 3 -23 -54 -7 -85 50 -49 90 18 20 74 22 80 3z
m188 5 c-3 -5 -15 -10 -26 -10 -10 0 -19 -4 -19 -10 0 -5 9 -10 19 -10 11 0
23 -4 26 -10 4 -6 -5 -10 -19 -10 -16 0 -26 -6 -26 -15 0 -8 9 -15 19 -15 11
0 23 -4 26 -10 4 -6 -8 -10 -29 -10 l-36 0 0 55 0 55 36 0 c21 0 33 -4 29 -10z
m190 0 c4 -6 -5 -10 -19 -10 -33 0 -34 -16 -2 -24 29 -7 41 -33 25 -53 -14
-16 -61 -14 -67 4 -2 9 5 11 27 7 40 -8 41 10 1 31 -33 17 -36 25 -18 43 15
15 45 16 53 2z m-3845 -1612 c0 -6 -6 -5 -15 2 -8 7 -15 14 -15 16 0 2 7 1 15
-2 8 -4 15 -11 15 -16z m130 -98 c19 -16 30 -30 25 -30 -6 0 -26 13 -45 30
-19 16 -30 29 -25 29 6 0 26 -13 45 -29z m346 -235 c10 -8 15 -14 9 -14 -5 0
-19 6 -29 14 -11 8 -15 15 -10 15 6 0 19 -7 30 -15z m559 -245 c8 -13 -5 -13
-25 0 -13 8 -13 10 2 10 9 0 20 -4 23 -10z"/>
<path d="M5208 8313 c-10 -2 -18 -9 -18 -13 0 -9 25 -6 100 10 33 8 32 8 -15
8 -27 0 -58 -2 -67 -5z"/>
<path d="M5448 8313 c17 -2 47 -2 65 0 17 2 3 4 -33 4 -36 0 -50 -2 -32 -4z"/>
<path d="M5675 8300 c-4 -6 11 -10 37 -9 36 1 39 2 18 9 -36 11 -48 11 -55 0z"/>
<path d="M5128 8283 c12 -2 30 -2 40 0 9 3 -1 5 -23 4 -22 0 -30 -2 -17 -4z"/>
<path d="M5873 8273 c9 -2 25 -2 35 0 9 3 1 5 -18 5 -19 0 -27 -2 -17 -5z"/>
<path d="M5938 8263 c7 -3 16 -2 19 1 4 3 -2 6 -13 5 -11 0 -14 -3 -6 -6z"/>
<path d="M4838 8253 c7 -3 16 -2 19 1 4 3 -2 6 -13 5 -11 0 -14 -3 -6 -6z"/>
<path d="M6095 8229 c39 -10 74 -17 80 -16 11 4 -118 37 -137 36 -7 0 19 -9
57 -20z"/>
<path d="M6262 8197 c16 -17 97 -47 126 -47 32 0 6 18 -45 33 -32 9 -67 19
-78 23 -19 7 -19 7 -3 -9z"/>
<path d="M6449 8137 c6 -8 32 -20 56 -26 25 -6 45 -15 45 -20 0 -13 32 -23 42
-13 6 6 -2 14 -19 20 -15 6 -52 20 -82 32 -39 15 -51 17 -42 7z"/>
<path d="M3485 7584 c-43 -40 -44 -42 -9 -15 37 27 72 61 63 61 -2 0 -26 -21
-54 -46z"/>
<path d="M7430 7538 c3 -4 59 -62 125 -130 66 -68 110 -109 98 -93 -18 25
-238 245 -223 223z"/>
<path d="M2820 6890 c-6 -11 -8 -20 -6 -20 3 0 10 9 16 20 6 11 8 20 6 20 -3
0 -10 -9 -16 -20z"/>
<path d="M2712 6685 c-17 -37 -14 -45 4 -12 9 16 14 31 11 33 -2 2 -9 -7 -15
-21z"/>
<path d="M8226 6500 c4 -14 13 -38 20 -55 11 -24 13 -25 8 -5 -4 14 -13 39
-20 55 -11 24 -13 25 -8 5z"/>
<path d="M8261 6400 c0 -22 38 -107 38 -89 1 20 -19 81 -30 94 -6 5 -9 3 -8
-5z"/>
<path d="M8341 6104 c0 -11 3 -14 6 -6 3 7 2 16 -1 19 -3 4 -6 -2 -5 -13z"/>
<path d="M4247 6482 c-55 -57 -114 -225 -162 -459 -28 -141 -78 -487 -73 -511
2 -10 22 26 45 78 23 52 69 158 103 235 156 352 217 575 179 648 -24 45 -54
48 -92 9z"/>
<path d="M5461 6343 c-54 -37 -126 -239 -171 -478 -20 -107 -72 -496 -67 -501
3 -3 77 159 169 370 115 265 182 497 165 568 -14 55 -53 72 -96 41z"/>
<path d="M2753 3993 c1 -17 5 -29 10 -26 4 2 7 1 7 -4 1 -4 12 -21 26 -38 l26
-30 -17 34 c-9 18 -25 47 -36 64 l-19 32 3 -32z"/>
<path d="M2835 3860 c9 -16 18 -30 21 -30 2 0 -2 14 -11 30 -9 17 -18 30 -21
30 -2 0 2 -13 11 -30z"/>
<path d="M7882 3750 c-18 -29 -15 -38 4 -12 9 13 14 25 12 27 -2 2 -9 -5 -16
-15z"/>
<path d="M7755 3579 c-4 -6 -5 -12 -2 -15 2 -3 7 2 10 11 7 17 1 20 -8 4z"/>
<path d="M3645 3090 c10 -11 20 -20 23 -20 3 0 -3 9 -13 20 -10 11 -20 20 -23
20 -3 0 3 -9 13 -20z"/>
<path d="M7110 3070 c-25 -16 -42 -30 -37 -30 8 0 87 51 87 56 0 7 -4 5 -50
-26z"/>
<path d="M4412 2688 c4 -11 89 -46 118 -47 27 -2 -4 18 -39 24 -18 3 -40 12
-48 20 -17 18 -36 20 -31 3z"/>
<path d="M4580 2632 c0 -5 26 -15 58 -22 31 -7 64 -15 72 -18 13 -5 13 -4 0 9
-8 9 -36 21 -62 27 -56 14 -68 15 -68 4z"/>
<path d="M4805 2584 c28 -7 59 -13 70 -13 11 0 -5 7 -35 14 -72 18 -100 17
-35 -1z"/>
<path d="M5898 2563 c7 -3 16 -2 19 1 4 3 -2 6 -13 5 -11 0 -14 -3 -6 -6z"/>
<path d="M4973 2553 c9 -2 25 -2 35 0 9 3 1 5 -18 5 -19 0 -27 -2 -17 -5z"/>
<path d="M5668 2553 c7 -3 16 -2 19 1 4 3 -2 6 -13 5 -11 0 -14 -3 -6 -6z"/>
<path d="M5608 2545 c-3 -3 -25 -9 -49 -14 l-44 -9 41 -1 c23 -1 55 6 70 14
25 13 26 15 8 15 -11 0 -23 -2 -26 -5z"/>
<path d="M5167 2530 c12 -5 34 -5 50 0 24 7 21 8 -22 9 -38 0 -45 -2 -28 -9z"/>
<path d="M5348 2523 c18 -2 45 -2 60 0 15 2 0 4 -33 4 -33 0 -45 -2 -27 -4z"/>
<path d="M3690 4605 c0 -8 5 -15 10 -15 6 0 10 7 10 15 0 8 -4 15 -10 15 -5 0
-10 -7 -10 -15z"/>
<path d="M3895 4590 c-3 -5 -1 -10 4 -10 6 0 11 5 11 10 0 6 -2 10 -4 10 -3 0
-8 -4 -11 -10z"/>
<path d="M4720 4590 c0 -5 5 -10 11 -10 5 0 7 5 4 10 -3 6 -8 10 -11 10 -2 0
-4 -4 -4 -10z"/>
<path d="M5244 4606 c-13 -33 0 -51 36 -51 32 0 35 2 35 30 0 27 -4 30 -33 33
-22 2 -34 -2 -38 -12z"/>
<path d="M6330 4605 c0 -8 5 -15 10 -15 6 0 10 7 10 15 0 8 -4 15 -10 15 -5 0
-10 -7 -10 -15z"/>
</g>
</svg>
